# Blender v2.79 (sub 0) OBJ File: ''
# www.blender.org
mtllib cow.mtl
o Cube.001
v -0.375000 -0.168411 0.484298
v -0.375000 0.456589 0.484298
v -0.375000 0.456589 -0.640702
v -0.375000 -0.168411 -0.640702
v 0.375000 0.456589 -0.640702
v 0.375000 -0.168411 -0.640702
v 0.375000 0.456589 0.484298
v 0.375000 -0.168411 0.484298
v 0.125000 -0.918411 -0.328202
v 0.125000 -0.168411 -0.328202
v 0.125000 -0.168411 -0.578202
v 0.125000 -0.918411 -0.578202
v 0.375000 -0.168411 -0.578202
v 0.375000 -0.918411 -0.578202
v 0.375000 -0.168411 -0.328202
v 0.375000 -0.918411 -0.328202
v -0.375000 -0.918411 -0.328202
v -0.375000 -0.168411 -0.328202
v -0.375000 -0.168411 -0.578202
v -0.375000 -0.918411 -0.578202
v -0.125000 -0.168411 -0.578202
v -0.125000 -0.918411 -0.578202
v -0.125000 -0.168411 -0.328202
v -0.125000 -0.918411 -0.328202
v -0.375000 -0.918411 0.484298
v -0.375000 -0.168411 0.484298
v -0.375000 -0.168411 0.234298
v -0.375000 -0.918411 0.234298
v -0.125000 -0.168411 0.234298
v -0.125000 -0.918411 0.234298
v -0.125000 -0.168411 0.484298
v -0.125000 -0.918411 0.484298
v -0.250000 0.081589 0.796798
v -0.250000 0.581589 0.796798
v -0.250000 0.581589 0.484298
v -0.250000 0.081589 0.484298
v 0.250000 0.581589 0.484298
v 0.250000 0.081589 0.484298
v 0.250000 0.581589 0.796798
v 0.250000 0.081589 0.796798
v 0.125000 -0.918411 0.484298
v 0.125000 -0.168411 0.484298
v 0.125000 -0.168411 0.234298
v 0.125000 -0.918411 0.234298
v 0.375000 -0.168411 0.234298
v 0.375000 -0.918411 0.234298
v 0.375000 -0.168411 0.484298
v 0.375000 -0.918411 0.484298
vt 0.437500 0.562500
vt 0.281250 0.562500
vt 0.281250 0.000000
vt 0.437500 0.000000
vt 0.812500 0.562500
vt 0.812500 0.875000
vt 0.625000 0.875000
vt 0.625000 0.562500
vt 0.625000 0.000000
vt 0.781250 0.000000
vt 0.781250 0.562500
vt 0.625000 0.562500
vt 0.625000 0.875000
vt 0.437500 0.875000
vt 0.437500 0.562500
vt 0.625000 0.562500
vt 0.968750 0.000000
vt 0.968750 0.562500
vt 0.062500 0.000000
vt 0.062500 0.375000
vt 0.000000 0.375000
vt 0.000000 0.000000
vt 0.250000 0.000000
vt 0.250000 0.375000
vt 0.187500 0.375000
vt 0.187500 0.000000
vt 0.125000 0.375000
vt 0.125000 0.000000
vt 0.187500 0.500000
vt 0.125000 0.500000
vt 0.125000 0.375000
vt 0.187500 0.375000
vt 0.125000 0.500000
vt 0.062500 0.500000
vt 0.062500 0.000000
vt 0.062500 0.375000
vt 0.000000 0.375000
vt 0.000000 0.000000
vt 0.250000 0.000000
vt 0.250000 0.375000
vt 0.187500 0.375000
vt 0.187500 0.000000
vt 0.125000 0.375000
vt 0.125000 0.000000
vt 0.187500 0.500000
vt 0.125000 0.500000
vt 0.125000 0.375000
vt 0.187500 0.375000
vt 0.125000 0.500000
vt 0.062500 0.500000
vt 0.062500 0.000000
vt 0.062500 0.375000
vt 0.000000 0.375000
vt 0.000000 0.000000
vt 0.250000 0.000000
vt 0.250000 0.375000
vt 0.187500 0.375000
vt 0.187500 0.000000
vt 0.125000 0.375000
vt 0.125000 0.000000
vt 0.187500 0.500000
vt 0.125000 0.500000
vt 0.125000 0.375000
vt 0.187500 0.375000
vt 0.125000 0.500000
vt 0.062500 0.500000
vt 0.093750 0.562500
vt 0.093750 0.812500
vt 0.000000 0.812500
vt 0.000000 0.562500
vt 0.437500 0.562500
vt 0.437500 0.812500
vt 0.312500 0.812500
vt 0.312500 0.562500
vt 0.296875 0.562500
vt 0.296875 0.812500
vt 0.218750 0.812500
vt 0.218750 0.562500
vt 0.218750 0.812500
vt 0.343750 0.812500
vt 0.343750 1.000000
vt 0.218750 1.000000
vt 0.218750 1.000000
vt 0.093750 1.000000
vt 0.062500 0.000000
vt 0.062500 0.375000
vt 0.000000 0.375000
vt 0.000000 0.000000
vt 0.250000 0.000000
vt 0.250000 0.375000
vt 0.187500 0.375000
vt 0.187500 0.000000
vt 0.125000 0.375000
vt 0.125000 0.000000
vt 0.187500 0.500000
vt 0.125000 0.500000
vt 0.125000 0.375000
vt 0.187500 0.375000
vt 0.125000 0.500000
vt 0.062500 0.500000
vn -1.0000 0.0000 0.0000
vn 0.0000 0.0000 -1.0000
vn 1.0000 0.0000 0.0000
vn 0.0000 -0.0000 1.0000
vn 0.0000 -1.0000 -0.0000
vn 0.0000 1.0000 0.0000
usemtl None
s 1
f 1/1/1 2/2/1 3/3/1 4/4/1
f 4/5/2 3/6/2 5/7/2 6/8/2
f 6/9/3 5/10/3 7/11/3 8/12/3
f 8/13/4 7/14/4 2/15/4 1/16/4
f 4/4/5 6/9/5 8/12/5 1/1/5
f 5/10/6 3/17/6 2/18/6 7/11/6
f 9/19/1 10/20/1 11/21/1 12/22/1
f 12/23/2 11/24/2 13/25/2 14/26/2
f 14/26/3 13/25/3 15/27/3 16/28/3
f 16/28/4 15/27/4 10/20/4 9/19/4
f 12/29/5 14/30/5 16/31/5 9/32/5
f 13/33/6 11/34/6 10/20/6 15/27/6
f 17/35/1 18/36/1 19/37/1 20/38/1
f 20/39/2 19/40/2 21/41/2 22/42/2
f 22/42/3 21/41/3 23/43/3 24/44/3
f 24/44/4 23/43/4 18/36/4 17/35/4
f 20/45/5 22/46/5 24/47/5 17/48/5
f 21/49/6 19/50/6 18/36/6 23/43/6
f 25/51/1 26/52/1 27/53/1 28/54/1
f 28/55/2 27/56/2 29/57/2 30/58/2
f 30/58/3 29/57/3 31/59/3 32/60/3
f 32/60/4 31/59/4 26/52/4 25/51/4
f 28/61/5 30/62/5 32/63/5 25/64/5
f 29/65/6 27/66/6 26/52/6 31/59/6
f 33/67/1 34/68/1 35/69/1 36/70/1
f 36/71/2 35/72/2 37/73/2 38/74/2
f 38/75/3 37/76/3 39/77/3 40/78/3
f 40/78/4 39/77/4 34/68/4 33/67/4
f 36/79/5 38/80/5 40/81/5 33/82/5
f 37/83/6 35/84/6 34/68/6 39/77/6
f 41/85/1 42/86/1 43/87/1 44/88/1
f 44/89/2 43/90/2 45/91/2 46/92/2
f 46/92/3 45/91/3 47/93/3 48/94/3
f 48/94/4 47/93/4 42/86/4 41/85/4
f 44/95/5 46/96/5 48/97/5 41/98/5
f 45/99/6 43/100/6 42/86/6 47/93/6
